<svg xmlns="http://www.w3.org/2000/svg" width="400" height="400" viewBox="0 0 400 400">
<g>
<path d="M 275.66 279.51 C270.24,281.12 257.78,281.29 247.00,279.91 C234.26,278.28 226.76,276.77 227.91,276.05 C228.56,275.65 232.10,275.93 235.79,276.65 C239.48,277.38 249.06,278.27 257.08,278.64 C274.60,279.43 278.98,278.30 285.75,271.26 C290.30,266.52 290.96,264.10 288.40,261.54 C287.08,260.22 284.97,260.00 276.65,260.31 C262.17,260.85 247.41,257.96 233.47,251.86 C229.07,249.93 219.97,243.10 219.25,241.17 C218.90,240.25 217.02,237.38 215.06,234.80 C209.39,227.30 206.75,222.76 205.89,219.00 C205.44,217.07 204.12,212.12 202.95,208.00 C201.22,201.90 200.80,197.60 200.72,185.00 C200.60,165.32 201.24,157.93 203.33,154.94 C204.25,153.63 205.03,151.42 205.06,150.03 C205.18,144.94 216.86,126.68 224.16,120.17 C229.01,115.83 237.05,110.98 239.30,111.02 C239.96,111.03 238.20,112.39 235.38,114.03 C228.01,118.33 217.93,128.58 213.20,136.59 C205.39,149.81 202.02,163.79 202.01,183.00 C201.99,209.00 207.90,225.91 221.97,240.10 C227.64,245.83 231.35,248.59 237.00,251.28 C249.23,257.11 255.51,258.39 272.96,258.61 C287.58,258.79 288.52,258.92 290.21,261.01 C292.58,263.94 292.47,266.01 289.73,270.08 C286.82,274.40 282.00,277.63 275.66,279.51 ZM 90.59 278.12 C87.46,281.59 85.79,284.60 84.71,288.73 C83.21,294.45 83.20,294.47 83.11,290.50 C83.00,285.52 87.41,277.45 92.27,273.74 C96.78,270.31 105.36,267.35 114.86,265.96 C124.48,264.55 150.90,265.48 170.25,267.91 C170.66,267.96 171.00,268.36 171.00,268.80 C171.00,269.24 167.96,269.26 164.25,268.84 C160.54,268.42 149.40,267.78 139.50,267.41 C111.35,266.36 98.66,269.13 90.59,278.12 ZM 199.35 248.27 C200.51,249.12 201.05,250.51 200.82,252.06 C200.46,254.42 200.38,254.39 198.62,251.10 C194.97,244.30 169.80,201.47 168.91,200.55 C167.10,198.67 168.11,196.45 172.06,193.66 C181.49,186.98 188.38,172.71 189.94,156.59 L 190.73 148.50 L 190.86 155.00 C191.18,169.96 185.08,184.69 175.44,192.30 C172.51,194.61 170.12,197.18 170.13,198.00 C170.15,198.82 171.46,201.52 173.06,204.00 C174.66,206.48 176.51,209.62 177.18,211.00 C177.84,212.38 182.01,219.72 186.44,227.33 C190.87,234.93 195.18,242.45 196.01,244.04 C196.84,245.63 198.34,247.53 199.35,248.27 ZM 150.77 172.83 C146.42,175.52 142.00,177.16 142.00,176.09 C142.00,175.62 142.79,174.94 143.75,174.59 C151.70,171.68 156.95,164.43 156.98,156.32 C157.01,148.51 152.77,139.43 147.96,136.98 C142.55,134.22 131.37,131.97 124.85,132.34 C120.07,132.60 118.81,133.10 116.63,135.58 L 114.06 138.50 L 114.03 135.33 L 114.00 132.16 L 120.64 131.45 C135.23,129.89 147.75,132.77 153.36,138.98 C161.49,147.97 160.02,167.12 150.77,172.83 ZM 147.71 331.35 C138.04,332.10 120.54,332.21 119.85,331.52 C119.59,331.25 116.02,330.39 111.94,329.60 C101.23,327.52 93.45,323.68 90.49,318.99 C89.17,316.89 87.61,314.87 87.03,314.52 C84.57,313.00 80.92,300.00 82.95,300.00 C83.53,300.00 84.00,301.01 84.01,302.25 C84.03,306.27 88.59,314.40 93.21,318.64 C102.46,327.14 114.20,330.40 135.50,330.39 C150.06,330.38 156.14,329.45 160.06,326.62 C160.91,326.01 160.33,326.67 158.77,328.10 C156.36,330.31 154.66,330.81 147.71,331.35 ZM 289.46 301.96 C285.08,303.07 279.48,303.92 277.00,303.86 C272.88,303.76 273.04,303.68 278.83,302.93 C295.67,300.74 308.81,292.31 314.29,280.18 C317.04,274.09 317.83,252.50 315.74,240.71 C314.52,233.83 314.53,233.10 315.84,234.41 C317.54,236.11 318.13,242.54 318.31,261.50 C318.47,276.64 317.76,279.57 312.11,287.13 C306.33,294.84 299.22,299.51 289.46,301.96 ZM 187.90 133.63 C189.14,137.00 190.01,141.05 189.83,142.63 C189.57,144.86 189.23,144.21 188.29,139.69 C184.84,123.11 174.00,112.46 154.99,106.98 C149.40,105.37 143.63,104.68 132.25,104.28 C123.86,103.98 117.00,103.41 117.00,103.01 C117.00,101.67 129.42,101.11 136.50,102.12 C145.38,103.40 158.02,106.05 159.99,107.05 C160.82,107.48 163.63,108.57 166.24,109.49 C169.25,110.55 172.91,113.08 176.24,116.41 C183.20,123.36 185.20,126.31 187.90,133.63 ZM 241.47 153.76 C240.63,154.23 238.87,157.96 237.57,162.06 C234.92,170.38 234.09,169.42 236.61,160.93 C238.89,153.22 242.34,147.81 248.58,142.10 C254.74,136.47 262.20,133.23 272.00,131.93 C280.60,130.79 292.21,130.84 289.50,132.00 C288.40,132.47 283.45,132.90 278.50,132.95 C268.60,133.05 257.62,136.13 253.55,139.95 C252.35,141.08 250.88,142.00 250.27,142.00 C248.94,142.00 243.00,149.88 243.00,151.65 C243.00,152.34 242.31,153.29 241.47,153.76 ZM 263.00 227.95 C263.00,228.04 263.00,228.12 263.00,228.19 C263.01,228.47 263.02,228.67 262.92,228.77 C262.66,229.01 261.72,228.54 258.31,226.83 C257.95,226.65 257.56,226.45 257.14,226.24 C241.04,218.18 233.87,203.90 234.17,180.50 L 234.32 169.50 L 234.98 181.50 C235.37,188.35 236.38,195.68 237.35,198.59 C238.29,201.38 239.25,204.72 239.50,206.01 C239.75,207.30 240.43,208.65 241.02,209.01 C241.61,209.38 242.86,211.21 243.80,213.09 C245.50,216.49 253.53,222.73 259.75,225.47 C261.54,226.25 263.00,227.37 263.00,227.95 ZM 134.50 307.45 C117.28,310.64 105.12,307.98 105.05,301.00 C105.04,300.07 105.31,299.90 105.77,300.55 C106.17,301.13 108.16,302.85 110.19,304.37 C113.73,307.04 114.22,307.12 123.19,306.67 C128.31,306.42 134.98,305.71 138.00,305.10 C147.97,303.10 152.00,302.70 152.00,303.73 C152.00,304.28 149.86,305.00 147.25,305.34 C144.64,305.68 138.90,306.63 134.50,307.45 ZM 115.46 229.20 C115.44,242.24 115.10,253.23 114.71,253.62 C114.32,254.01 114.00,243.01 114.00,229.17 L 114.00 204.00 L 119.17 204.00 C122.01,204.00 124.01,204.32 123.62,204.72 C123.22,205.11 121.23,205.45 119.20,205.47 L 115.50 205.50 ZM 145.00 217.57 C151.65,229.20 153.15,232.75 150.18,229.78 C149.53,229.13 149.00,228.08 149.00,227.45 C149.00,226.83 148.04,225.45 146.86,224.40 C145.69,223.36 144.23,221.37 143.61,220.00 C143.00,218.62 140.93,214.94 139.00,211.81 C135.69,206.43 135.26,206.11 131.00,205.74 C126.74,205.38 126.80,205.35 132.16,205.18 L 137.82 205.00 ZM 112.00 256.69 C108.13,259.79 92.85,260.59 87.81,257.95 C82.58,255.21 82.28,253.98 87.27,255.72 C91.72,257.26 108.48,257.12 112.50,255.49 C114.03,254.88 113.91,255.16 112.00,256.69 ZM 268.50 304.08 C271.20,305.15 258.75,305.03 253.50,303.94 C251.30,303.48 245.45,302.60 240.50,301.98 C235.55,301.35 229.70,300.23 227.50,299.47 C221.86,297.53 224.90,297.69 237.30,299.96 C243.18,301.04 252.16,302.23 257.25,302.61 C262.34,302.98 267.40,303.65 268.50,304.08 ZM 313.73 138.19 C311.95,139.32 308.87,139.02 306.00,137.44 C304.62,136.69 301.02,135.18 298.00,134.09 C294.25,132.74 293.30,132.09 295.00,132.07 C296.38,132.06 300.65,133.16 304.50,134.52 C308.35,135.88 311.90,136.99 312.38,137.00 C312.86,137.00 313.05,133.41 312.79,129.01 C312.42,122.53 312.56,121.36 313.56,122.78 C315.20,125.13 315.34,137.17 313.73,138.19 ZM 197.29 256.93 C195.45,258.66 193.88,258.98 187.79,258.88 C183.78,258.82 179.82,258.62 179.00,258.45 C178.18,258.27 175.36,257.85 172.75,257.50 C167.61,256.83 162.60,253.40 161.70,249.95 C161.26,248.28 161.42,248.11 162.54,249.03 C163.30,249.66 164.18,250.99 164.49,251.98 C165.07,253.80 168.04,255.30 173.39,256.47 C178.08,257.50 193.41,257.17 196.58,255.98 L 199.50 254.87 ZM 222.47 297.35 C223.01,297.51 222.56,297.88 221.47,298.16 C220.39,298.43 216.12,298.06 212.00,297.33 C207.88,296.59 202.00,295.55 198.94,295.00 C195.88,294.45 191.61,293.96 189.44,293.90 C187.27,293.85 184.38,293.44 183.00,293.00 L 180.50 292.20 L 183.22 292.10 C185.66,292.01 220.10,296.61 222.47,297.35 ZM 249.50 107.66 C246.75,108.56 243.82,109.52 243.00,109.80 C239.24,111.09 243.54,108.48 248.49,106.46 C255.62,103.56 266.21,101.46 268.62,102.47 C269.96,103.03 268.19,103.65 262.50,104.65 C258.10,105.41 252.25,106.77 249.50,107.66 ZM 171.00 290.46 L 180.50 291.72 L 167.55 291.61 C159.59,291.54 153.69,291.03 152.27,290.29 C150.99,289.63 146.91,288.90 143.22,288.68 C139.52,288.46 142.12,288.48 149.00,288.73 C155.88,288.99 165.77,289.76 171.00,290.46 ZM 111.39 292.00 C108.53,292.00 107.79,292.50 106.58,295.25 C105.48,297.78 105.15,298.04 105.08,296.42 C104.92,292.24 112.73,287.99 120.50,288.03 C123.38,288.04 123.33,288.12 119.14,290.02 C116.74,291.11 113.26,292.00 111.39,292.00 ZM 194.50 270.46 L 197.50 271.84 L 193.50 271.79 C191.30,271.77 185.90,271.19 181.50,270.51 L 173.50 269.28 L 182.50 269.19 C188.20,269.13 192.60,269.59 194.50,270.46 ZM 157.42 239.33 C161.37,246.50 161.71,248.51 158.32,244.75 C155.76,241.90 151.57,233.10 152.39,232.28 C152.57,232.10 152.70,231.94 152.85,231.92 C153.30,231.85 153.95,233.02 156.95,238.46 C157.10,238.74 157.26,239.03 157.42,239.33 ZM 304.25 229.49 C301.09,229.84 297.26,230.36 295.75,230.64 C291.86,231.37 292.32,229.41 296.25,228.49 C300.44,227.51 310.00,227.30 310.00,228.18 C310.00,228.55 307.41,229.14 304.25,229.49 ZM 290.50 230.00 C293.09,231.11 272.47,231.11 269.00,230.00 C267.42,229.49 270.54,229.19 277.50,229.17 C283.55,229.15 289.40,229.53 290.50,230.00 ZM 115.56 103.22 C115.81,103.48 111.29,104.09 105.51,104.59 C95.84,105.43 92.71,105.09 96.51,103.63 C98.35,102.93 114.91,102.57 115.56,103.22 ZM 218.97 273.96 C220.67,275.04 220.18,275.75 218.00,275.37 C217.18,275.23 213.16,274.58 209.09,273.94 C203.16,273.00 202.04,272.56 203.50,271.74 C204.77,271.03 205.88,271.07 207.15,271.86 C208.15,272.49 210.89,273.01 213.24,273.02 C215.58,273.02 218.16,273.45 218.97,273.96 ZM 165.00 314.64 C165.00,317.59 164.77,320.00 164.50,320.00 C164.23,320.00 164.00,318.30 164.00,316.22 C164.00,311.81 162.01,308.59 157.63,305.92 C155.91,304.87 155.15,304.01 155.95,304.00 C156.74,304.00 159.10,305.19 161.20,306.64 C164.80,309.13 165.00,309.55 165.00,314.64 ZM 124.00 177.11 C124.00,178.07 123.38,178.07 118.00,177.12 C114.82,176.56 114.49,176.18 114.36,173.00 C114.25,170.38 114.33,170.19 114.68,172.25 C115.05,174.50 115.65,175.00 117.98,175.00 C121.44,175.00 124.00,175.90 124.00,177.11 ZM 90.38 106.42 C88.25,106.80 85.60,107.37 84.51,107.70 C82.79,108.21 82.69,108.07 83.83,106.71 C85.52,104.67 90.45,103.59 92.59,104.79 C93.93,105.54 93.48,105.87 90.38,106.42 ZM 84.00 249.00 C84.00,253.04 82.72,254.33 81.61,251.42 C80.86,249.46 81.90,245.00 83.11,245.00 C83.60,245.00 84.00,246.80 84.00,249.00 Z" fill="rgb(221,97,102)"/>
<path d="M 0.00 0.00 L 400.00 0.00 L 400.00 400.00 L 0.00 400.00 ZM 147.71 331.35 C154.66,330.81 156.36,330.31 158.77,328.10 C160.33,326.67 160.91,326.01 160.06,326.62 C156.57,329.14 151.37,330.16 140.01,330.35 C146.66,330.03 153.06,329.46 155.14,328.84 C160.91,327.11 164.00,323.00 164.00,317.06 C164.00,314.08 163.25,311.51 161.81,309.48 C163.30,311.40 164.00,313.60 164.00,316.22 C164.00,318.30 164.23,320.00 164.50,320.00 C164.77,320.00 165.00,317.59 165.00,314.64 C165.00,309.55 164.80,309.13 161.20,306.64 C159.10,305.19 156.74,304.00 155.95,304.00 C155.15,304.01 155.91,304.87 157.63,305.92 C157.72,305.97 157.80,306.02 157.88,306.07 C157.53,305.88 157.17,305.71 156.79,305.56 C154.95,304.78 153.14,304.57 148.38,305.17 C150.45,304.79 152.00,304.19 152.00,303.73 C152.00,302.70 147.97,303.10 138.00,305.10 C134.98,305.71 128.31,306.42 123.19,306.67 C114.22,307.12 113.73,307.04 110.19,304.37 C108.16,302.85 106.17,301.13 105.77,300.55 C105.47,300.13 105.25,300.05 105.13,300.31 C105.07,299.73 105.04,299.10 105.03,298.42 C105.03,297.85 105.05,297.31 105.10,296.80 C105.21,297.98 105.57,297.56 106.58,295.25 C107.79,292.50 108.53,292.00 111.39,292.00 C113.26,292.00 116.74,291.11 119.14,290.02 C121.50,288.95 122.55,288.46 122.50,288.23 C125.41,288.07 128.78,288.01 132.64,288.01 C140.20,288.00 149.54,288.48 160.12,289.39 C156.29,289.10 152.30,288.86 149.00,288.73 C142.12,288.48 139.52,288.46 143.22,288.68 C146.91,288.90 150.99,289.63 152.27,290.29 C153.69,291.03 159.59,291.54 167.55,291.61 L 180.50 291.72 L 171.00 290.46 C170.60,290.40 170.17,290.35 169.71,290.29 C179.89,291.33 190.96,292.71 202.51,294.37 C193.42,293.15 184.42,292.06 183.22,292.10 L 180.50 292.20 L 183.00 293.00 C184.38,293.44 187.27,293.85 189.44,293.90 C191.61,293.96 195.88,294.45 198.94,295.00 C202.00,295.55 207.88,296.59 212.00,297.33 C216.12,298.06 220.39,298.43 221.47,298.16 C222.32,297.94 222.78,297.67 222.69,297.48 C224.62,297.80 226.56,298.13 228.50,298.46 L 228.62 298.48 C223.86,297.78 223.56,298.12 227.50,299.47 C229.70,300.23 235.55,301.35 240.50,301.98 C245.45,302.60 251.30,303.48 253.50,303.94 C258.75,305.03 271.20,305.15 268.50,304.08 C267.73,303.78 265.00,303.36 261.68,303.01 C269.11,303.56 275.07,303.47 280.35,302.71 C279.84,302.79 279.34,302.86 278.83,302.93 C273.04,303.68 272.88,303.76 277.00,303.86 C279.48,303.92 285.08,303.07 289.46,301.96 C299.22,299.51 306.33,294.84 312.11,287.13 C317.76,279.57 318.47,276.64 318.31,261.50 C318.13,242.54 317.54,236.11 315.84,234.41 C314.53,233.10 314.52,233.83 315.74,240.71 C316.42,244.55 316.80,249.44 316.90,254.48 C316.73,249.43 316.28,244.33 315.53,239.79 C314.60,234.13 313.53,229.20 313.16,228.83 C312.80,228.45 310.48,228.56 308.00,229.07 C305.73,229.53 302.40,229.91 298.60,230.20 C300.31,229.96 302.39,229.70 304.25,229.49 C307.41,229.14 310.00,228.55 310.00,228.18 C310.00,227.30 300.44,227.51 296.25,228.49 C293.79,229.06 292.69,230.05 293.16,230.52 C291.15,230.62 289.10,230.69 287.06,230.73 C289.73,230.60 291.34,230.36 290.50,230.00 C289.40,229.53 283.55,229.15 277.50,229.17 C270.54,229.19 267.42,229.49 269.00,230.00 C269.15,230.05 269.32,230.09 269.53,230.13 C269.27,230.09 269.03,230.05 268.81,230.01 C266.79,229.59 264.85,229.09 263.00,228.50 C263.01,228.41 263.01,228.31 263.00,228.20 L 263.00 228.19 C263.00,228.12 263.00,228.04 263.00,227.95 C263.00,227.37 261.54,226.25 259.75,225.47 C253.53,222.73 245.50,216.49 243.80,213.09 C242.86,211.21 241.61,209.38 241.02,209.01 C240.43,208.65 239.75,207.30 239.50,206.01 C239.25,204.72 238.29,201.38 237.35,198.59 C236.38,195.68 235.37,188.35 234.98,181.50 L 234.48 172.51 C234.66,170.91 234.88,169.33 235.14,167.79 C235.35,168.11 236.22,166.28 237.57,162.06 C238.87,157.96 240.63,154.23 241.47,153.76 C242.31,153.29 243.00,152.34 243.00,151.65 C243.00,149.88 248.94,142.00 250.27,142.00 C250.88,142.00 252.35,141.08 253.55,139.95 C257.62,136.13 268.60,133.05 278.50,132.95 C283.45,132.90 288.40,132.47 289.50,132.00 C289.90,131.83 289.99,131.68 289.82,131.56 C291.39,131.70 292.94,131.88 294.46,132.12 C293.61,132.28 294.76,132.92 298.00,134.09 C301.02,135.18 304.62,136.69 306.00,137.44 C308.87,139.02 311.95,139.32 313.73,138.19 C315.34,137.17 315.20,125.13 313.56,122.78 C312.59,121.40 312.43,122.47 312.77,128.50 C312.28,123.26 311.25,117.09 310.16,114.63 C308.03,109.81 306.35,108.57 299.17,106.50 C288.02,103.28 275.92,102.60 264.19,104.34 C268.53,103.52 269.81,102.97 268.62,102.47 C266.21,101.46 255.62,103.56 248.49,106.46 C243.54,108.48 239.24,111.09 243.00,109.80 C243.82,109.52 246.75,108.56 249.50,107.66 C250.97,107.19 253.33,106.57 255.89,105.99 C250.15,107.43 244.58,109.46 239.35,112.08 C235.25,114.13 231.40,116.66 227.85,119.62 C230.46,117.33 233.05,115.39 235.38,114.03 C238.20,112.39 239.96,111.03 239.30,111.02 C237.05,110.98 229.01,115.83 224.16,120.17 C216.86,126.68 205.18,144.94 205.06,150.03 C205.03,151.42 204.25,153.63 203.33,154.94 C201.24,157.93 200.60,165.32 200.72,185.00 C200.80,197.60 201.22,201.90 202.95,208.00 C204.12,212.12 205.44,217.07 205.89,219.00 C206.75,222.76 209.39,227.30 215.06,234.80 C217.02,237.38 218.90,240.25 219.25,241.17 C219.97,243.10 229.07,249.93 233.47,251.86 C247.41,257.96 262.17,260.85 276.65,260.31 C284.97,260.00 287.08,260.22 288.40,261.54 C290.96,264.10 290.30,266.52 285.75,271.26 C278.98,278.30 274.60,279.43 257.08,278.64 C249.06,278.27 239.48,277.38 235.79,276.65 C232.10,275.93 228.56,275.65 227.91,276.05 C227.21,276.49 229.74,277.23 234.74,278.11 C234.66,278.09 234.58,278.08 234.50,278.07 C228.40,277.04 223.17,276.18 218.57,275.45 C220.25,275.61 220.51,274.93 218.97,273.96 C218.16,273.45 215.58,273.02 213.24,273.02 C210.89,273.01 208.15,272.49 207.15,271.86 C205.88,271.07 204.77,271.03 203.50,271.74 C202.04,272.56 203.16,273.00 209.09,273.94 C211.93,274.39 214.75,274.84 216.47,275.12 C207.15,273.65 200.44,272.73 193.99,272.00 C192.87,271.87 191.77,271.75 190.67,271.63 C191.84,271.73 192.82,271.79 193.50,271.79 L 197.50 271.84 L 194.50 270.46 C192.60,269.59 188.20,269.13 182.50,269.19 L 173.50 269.28 L 181.50 270.51 C182.58,270.68 183.72,270.84 184.86,270.99 C172.28,269.63 161.39,268.63 151.92,267.98 C157.41,268.28 162.09,268.60 164.25,268.84 C167.96,269.26 171.00,269.24 171.00,268.80 C171.00,268.36 170.66,267.96 170.25,267.91 C150.90,265.48 124.48,264.55 114.86,265.96 C105.36,267.35 96.78,270.31 92.27,273.74 C87.41,277.45 83.00,285.52 83.11,290.50 C83.20,294.47 83.21,294.45 84.71,288.73 C85.78,284.67 87.41,281.68 90.45,278.27 C83.66,285.93 81.76,298.15 85.74,308.15 C84.68,305.89 84.02,303.77 84.01,302.25 C84.00,301.01 83.53,300.00 82.95,300.00 C80.92,300.00 84.57,313.00 87.03,314.52 C87.61,314.87 89.17,316.89 90.49,318.99 C93.45,323.68 101.23,327.52 111.94,329.60 C116.02,330.39 119.59,331.25 119.85,331.52 C120.54,332.21 138.04,332.10 147.71,331.35 ZM 199.35 248.27 C198.34,247.53 196.84,245.63 196.01,244.04 C195.18,242.45 190.87,234.93 186.44,227.33 C182.01,219.72 177.84,212.38 177.18,211.00 C176.51,209.62 174.66,206.48 173.06,204.00 C171.46,201.52 170.15,198.82 170.13,198.00 C170.12,197.18 172.51,194.61 175.44,192.30 C185.08,184.69 191.18,169.96 190.86,155.00 L 190.73 148.50 L 189.94 156.59 C189.61,159.98 189.05,163.29 188.28,166.46 C190.08,158.51 190.36,149.96 188.79,141.95 C189.36,144.35 189.62,144.42 189.83,142.63 C190.01,141.05 189.14,137.00 187.90,133.63 C185.20,126.31 183.20,123.36 176.24,116.41 C172.91,113.08 169.25,110.55 166.24,109.49 C163.63,108.57 160.82,107.48 159.99,107.05 C158.02,106.05 145.38,103.40 136.50,102.12 C129.42,101.11 117.00,101.67 117.00,103.01 C117.00,103.41 123.86,103.98 132.25,104.28 C135.19,104.38 137.75,104.50 140.04,104.66 C136.17,104.53 131.00,104.51 123.50,104.51 C109.84,104.51 99.39,105.00 92.62,105.92 C93.58,105.61 93.49,105.29 92.59,104.79 C90.45,103.59 85.52,104.67 83.83,106.71 C82.69,108.07 82.79,108.21 84.51,107.70 C84.90,107.58 85.49,107.43 86.19,107.27 C85.32,107.57 84.68,107.89 84.25,108.24 C83.27,109.02 83.00,123.07 83.01,172.37 C83.01,207.09 83.30,239.89 83.66,245.24 L 83.71 246.05 C83.55,245.40 83.34,245.00 83.11,245.00 C81.90,245.00 80.86,249.46 81.61,251.42 C82.63,254.07 83.78,253.24 83.97,250.01 L 84.30 254.92 C82.84,254.80 84.06,255.98 87.81,257.95 C92.85,260.59 108.13,259.79 112.00,256.69 C113.91,255.16 114.03,254.88 112.50,255.49 C111.66,255.83 110.26,256.11 108.53,256.32 C109.18,256.21 109.76,256.08 110.25,255.95 L 114.00 254.91 L 114.00 229.31 C114.00,243.08 114.32,254.01 114.71,253.62 C115.10,253.23 115.44,242.24 115.46,229.20 L 115.50 205.50 L 119.20 205.47 C121.23,205.45 123.22,205.11 123.62,204.72 C123.69,204.64 123.68,204.57 123.60,204.51 C127.39,204.79 131.57,205.00 133.57,205.00 L 137.84 205.00 L 140.25 209.26 L 137.82 205.00 L 132.16 205.18 C126.80,205.35 126.74,205.38 131.00,205.74 C135.26,206.11 135.69,206.43 139.00,211.81 C140.93,214.94 143.00,218.62 143.61,220.00 C144.23,221.37 145.69,223.36 146.86,224.40 C148.04,225.45 149.00,226.83 149.00,227.45 C149.00,228.08 149.53,229.13 150.18,229.78 C152.63,232.23 152.04,230.24 148.02,222.95 L 148.76 224.25 C150.26,226.88 151.77,229.54 153.21,232.10 C153.06,231.95 152.95,231.90 152.85,231.92 C152.70,231.94 152.57,232.10 152.39,232.28 C151.57,233.10 155.76,241.90 158.32,244.75 C161.09,247.82 161.37,247.04 159.23,242.75 C160.81,245.55 162.01,247.68 162.59,248.73 C162.74,249.00 162.89,249.27 163.03,249.52 C162.87,249.33 162.70,249.17 162.54,249.03 C161.42,248.11 161.26,248.28 161.70,249.95 C162.60,253.40 167.61,256.83 172.75,257.50 C175.36,257.85 178.18,258.27 179.00,258.45 C179.82,258.62 183.78,258.82 187.79,258.88 C193.88,258.98 195.45,258.66 197.29,256.93 L 199.18 255.17 C199.71,254.91 200.00,254.63 200.00,254.34 C200.00,253.76 193.68,242.51 186.73,230.44 C192.19,239.78 197.15,248.36 198.62,251.10 C200.38,254.39 200.46,254.42 200.82,252.06 C201.05,250.51 200.51,249.12 199.35,248.27 ZM 124.00 177.11 C124.00,175.90 121.44,175.00 117.98,175.00 C115.65,175.00 115.05,174.50 114.68,172.25 C114.57,171.62 114.49,171.20 114.43,171.00 L 114.23 154.33 L 113.96 132.16 L 114.00 132.16 L 114.03 135.33 L 114.06 138.50 L 116.63 135.58 C118.81,133.10 120.07,132.60 124.85,132.34 C131.37,131.97 142.55,134.22 147.96,136.98 C152.77,139.43 157.01,148.51 156.98,156.32 C156.95,164.43 151.70,171.68 143.75,174.59 C142.79,174.94 142.00,175.62 142.00,176.09 C142.00,176.36 142.28,176.46 142.76,176.41 C142.46,176.48 142.15,176.54 141.85,176.58 C137.68,177.23 129.67,177.59 123.91,177.54 C123.98,177.43 124.00,177.28 124.00,177.11 ZM 115.56 103.22 C114.91,102.57 98.35,102.93 96.51,103.63 C92.71,105.09 95.84,105.43 105.51,104.59 C111.29,104.09 115.81,103.48 115.56,103.22 ZM 114.39 328.77 C105.36,327.03 98.83,323.80 93.21,318.64 C98.34,323.21 105.48,326.63 114.39,328.77 ZM 202.02 185.31 C202.33,195.43 203.68,205.83 205.85,213.36 C203.39,205.29 202.17,196.10 202.02,185.31 ZM 218.39 129.35 C212.79,136.43 208.42,144.82 205.60,154.07 C207.40,147.88 209.90,142.17 213.20,136.59 C214.55,134.30 216.35,131.82 218.39,129.35 ZM 111.38 307.51 C115.61,308.87 121.73,309.17 129.08,308.28 C120.96,309.35 115.21,309.09 111.38,307.51 ZM 234.24 175.16 L 234.17 180.50 C234.10,186.20 234.47,191.37 235.30,196.03 C234.45,191.58 234.02,186.70 234.01,181.41 C234.01,179.31 234.09,177.22 234.24,175.16 ZM 256.94 302.59 C251.81,302.19 243.07,301.02 237.30,299.96 C236.55,299.83 235.83,299.70 235.15,299.57 C243.61,300.95 250.76,301.96 256.94,302.59 ZM 188.28 139.65 C188.25,139.52 188.22,139.39 188.19,139.26 C186.62,133.06 184.39,127.90 181.29,123.55 C184.67,128.12 186.99,133.47 188.28,139.65 ZM 111.75 289.73 C109.11,290.81 106.98,292.30 105.88,293.93 C106.83,292.00 108.66,290.65 111.75,289.73 ZM 177.63 256.83 C179.00,256.96 180.47,257.05 181.97,257.08 C178.41,257.06 175.15,256.86 173.39,256.47 C172.17,256.20 171.07,255.92 170.09,255.62 C171.96,256.16 174.36,256.50 177.63,256.83 ZM 90.59 278.12 C95.96,272.13 103.39,268.90 116.06,267.72 C103.13,269.02 95.72,272.42 90.59,278.12 ZM 119.38 177.36 C118.82,177.31 118.36,177.25 118.00,177.18 L 114.50 176.50 L 114.48 174.56 C114.72,176.33 115.44,176.67 118.00,177.12 C118.50,177.21 118.96,177.29 119.38,177.36 ZM 314.64 279.28 C314.53,279.61 314.41,279.91 314.29,280.18 C312.03,285.17 308.47,289.55 303.89,293.11 C308.30,289.52 312.23,284.73 314.28,280.18 C314.41,279.90 314.53,279.60 314.64,279.28 ZM 168.93 255.22 C166.36,254.29 164.88,253.21 164.49,251.98 C164.45,251.85 164.40,251.71 164.34,251.56 C165.62,253.34 166.95,254.46 168.93,255.22 ZM 245.98 144.64 C242.60,148.15 240.20,151.71 238.40,155.91 C239.05,154.31 239.77,152.84 240.54,151.53 C241.87,149.26 243.77,146.88 245.98,144.64 ZM 117.47 204.00 L 114.00 204.00 L 114.00 203.71 ZM 263.53 280.83 C268.18,280.76 272.27,280.37 274.98,279.69 C272.33,280.45 268.38,280.82 263.53,280.83 ZM 262.82 133.93 C259.90,134.86 257.22,136.05 254.74,137.52 C256.46,136.45 258.16,135.57 259.75,134.97 C260.74,134.59 261.76,134.25 262.82,133.93 ZM 196.55 255.99 C195.35,256.43 192.51,256.75 189.17,256.93 C192.00,256.74 194.60,256.41 196.55,255.99 ZM 228.07 245.73 C230.94,247.94 233.94,249.82 237.00,251.28 C233.61,249.66 230.91,248.02 228.07,245.73 ZM 297.16 297.39 C294.61,298.71 291.86,299.83 288.94,300.74 C291.70,299.85 294.39,298.73 297.16,297.39 ZM 154.77 168.91 C156.05,167.06 157.01,164.86 157.67,162.47 C157.22,164.12 156.62,165.71 155.87,167.21 C155.58,167.77 155.21,168.35 154.77,168.91 ZM 247.23 219.47 C249.51,221.60 252.10,223.47 255.01,225.11 C252.12,223.53 249.52,221.65 247.23,219.47 ZM 312.40 136.99 C311.98,136.99 309.47,136.23 306.44,135.19 C309.39,136.18 311.83,136.92 312.40,136.99 ZM 209.90 223.54 C210.82,225.35 211.83,227.13 212.92,228.86 C211.83,227.14 210.82,225.37 209.90,223.54 ZM 160.30 108.73 C159.47,108.42 158.61,108.12 157.73,107.82 C158.61,108.11 159.46,108.41 160.30,108.73 Z" fill="rgb(240,84,91)"/>
<path d="M 123.00 330.35 C103.82,327.77 90.95,320.29 86.03,308.84 C81.65,298.67 83.52,285.97 90.55,278.15 C101.95,265.48 124.55,264.13 193.99,272.00 C203.96,273.13 214.56,274.72 234.50,278.07 C252.23,281.05 268.17,281.68 275.07,279.67 C281.90,277.68 286.73,274.52 289.73,270.08 C292.47,266.01 292.58,263.94 290.21,261.01 C288.52,258.92 287.58,258.79 272.96,258.61 C255.51,258.39 249.23,257.11 237.00,251.28 C223.74,244.96 211.67,230.79 206.52,215.50 C202.27,202.88 200.69,179.71 203.07,165.00 C206.91,141.28 220.46,121.52 239.35,112.08 C257.54,102.98 279.79,100.91 299.17,106.50 C306.35,108.57 308.03,109.81 310.16,114.63 C312.21,119.26 314.04,137.00 312.47,137.00 C312.02,137.00 308.41,135.88 304.45,134.52 C291.36,130.00 272.37,130.19 259.75,134.97 C253.03,137.51 244.38,144.97 240.54,151.53 C236.46,158.48 234.00,169.77 234.01,181.41 C234.06,209.10 245.62,225.25 268.81,230.01 C275.58,231.39 299.41,230.82 308.00,229.07 C310.48,228.56 312.80,228.45 313.16,228.83 C313.53,229.20 314.60,234.13 315.53,239.79 C317.88,253.97 317.27,273.53 314.28,280.18 C311.35,286.69 304.58,293.68 298.04,296.96 C281.80,305.08 268.84,305.36 228.50,298.46 C190.36,291.94 154.22,288.00 132.64,288.01 C110.68,288.01 104.97,290.17 105.03,298.42 C105.07,303.36 106.55,305.50 111.32,307.49 C115.96,309.43 123.47,309.41 134.62,307.42 C150.80,304.53 153.76,304.28 156.79,305.56 C161.45,307.51 164.00,311.58 164.00,317.06 C164.00,323.00 160.91,327.11 155.14,328.84 C150.91,330.11 128.89,331.14 123.00,330.35 ZM 177.63 256.83 C167.98,255.86 165.93,254.76 162.59,248.73 C160.99,245.85 154.77,234.84 148.76,224.25 L 137.84 205.00 L 133.57 205.00 C131.22,205.00 125.86,204.71 121.65,204.35 L 114.00 203.71 L 114.00 229.31 L 114.00 254.91 L 110.25 255.95 C105.48,257.27 92.60,257.29 87.90,255.99 L 84.30 254.99 L 83.66 245.24 C83.30,239.89 83.01,207.09 83.01,172.37 C83.00,123.07 83.27,109.02 84.25,108.24 C87.24,105.83 101.05,104.52 123.50,104.51 C144.44,104.50 147.20,104.70 154.31,106.76 C174.09,112.50 183.76,121.78 188.19,139.26 C193.27,159.38 186.04,183.76 172.06,193.66 C168.11,196.45 167.10,198.67 168.91,200.55 C170.73,202.44 200.00,253.09 200.00,254.34 C200.00,256.28 186.82,257.74 177.63,256.83 ZM 141.85 176.58 C147.18,175.77 153.79,171.34 155.87,167.21 C160.43,158.16 159.31,145.56 153.36,138.98 C147.75,132.77 135.23,129.89 120.62,131.45 L 113.96 132.16 L 114.23 154.33 L 114.50 176.50 L 118.00 177.18 C121.56,177.87 135.77,177.52 141.85,176.58 Z" fill="rgb(252,251,251)"/>
</g>
</svg>